<svg xmlns="http://www.w3.org/2000/svg" viewBox="0 0 120 140" role="img" aria-labelledby="title">
  <title id="title">Blue Rose — il PhotoWedd ブランドシンボル</title>
  <path d="M60 10c0 0 36 24 36 60 0 27-18 47-36 54-18-7-36-27-36-54 0-36 36-60 36-60z"
        fill="none" stroke="#2E5BFF" stroke-width="2"/>
  <path d="M60 24c0 0 26 17 26 43 0 19-13 33-26 39-13-6-26-20-26-39 0-26 26-43 26-43z"
        fill="none" stroke="#2E5BFF" stroke-width="1.4" opacity="0.7"/>
  <path d="M60 38c0 0 16 11 16 27 0 12-8 21-16 25-8-4-16-13-16-25 0-16 16-27 16-27z"
        fill="none" stroke="#2E5BFF" stroke-width="1" opacity="0.5"/>
  <line x1="60" y1="124" x2="60" y2="138" stroke="#2E5BFF" stroke-width="2"/>
  <path d="M46 132c6-5 22-5 28 0" fill="none" stroke="#2E5BFF" stroke-width="1.4"/>
</svg>
